<svg xmlns="http://www.w3.org/2000/svg" xmlns:xlink="http://www.w3.org/1999/xlink" version="1.0" x="0" y="0" width="2400" height="579.8904400622037" viewBox="52.628592529296874 96.64060119628907 234.74281494140624 56.71879760742188" preserveAspectRatio="xMidYMid meet" color-interpolation-filters="sRGB"><g><defs><linearGradient id="92" x1="0%" y1="0%" x2="100%" y2="0%"><stop offset="0%" stop-color="#fa71cd"></stop> <stop offset="100%" stop-color="#9b59b6"></stop></linearGradient><linearGradient id="93" x1="0%" y1="0%" x2="100%" y2="0%"><stop offset="0%" stop-color="#f9d423"></stop> <stop offset="100%" stop-color="#f83600"></stop></linearGradient><linearGradient id="94" x1="0%" y1="0%" x2="100%" y2="0%"><stop offset="0%" stop-color="#0064d2"></stop> <stop offset="100%" stop-color="#1cb0f6"></stop></linearGradient><linearGradient id="95" x1="0%" y1="0%" x2="100%" y2="0%"><stop offset="0%" stop-color="#f00978"></stop> <stop offset="100%" stop-color="#3f51b1"></stop></linearGradient><linearGradient id="96" x1="0%" y1="0%" x2="100%" y2="0%"><stop offset="0%" stop-color="#7873f5"></stop> <stop offset="100%" stop-color="#ec77ab"></stop></linearGradient><linearGradient id="97" x1="0%" y1="0%" x2="100%" y2="0%"><stop offset="0%" stop-color="#f9d423"></stop> <stop offset="100%" stop-color="#e14fad"></stop></linearGradient><linearGradient id="98" x1="0%" y1="0%" x2="100%" y2="0%"><stop offset="0%" stop-color="#009efd"></stop> <stop offset="100%" stop-color="#2af598"></stop></linearGradient><linearGradient id="99" x1="0%" y1="0%" x2="100%" y2="0%"><stop offset="0%" stop-color="#ffcc00"></stop> <stop offset="100%" stop-color="#00b140"></stop></linearGradient><linearGradient id="100" x1="0%" y1="0%" x2="100%" y2="0%"><stop offset="0%" stop-color="#d51007"></stop> <stop offset="100%" stop-color="#ff8177"></stop></linearGradient><linearGradient id="102" x1="0%" y1="0%" x2="100%" y2="0%"><stop offset="0%" stop-color="#a2b6df"></stop> <stop offset="100%" stop-color="#0c3483"></stop></linearGradient><linearGradient id="103" x1="0%" y1="0%" x2="100%" y2="0%"><stop offset="0%" stop-color="#7ac5d8"></stop> <stop offset="100%" stop-color="#eea2a2"></stop></linearGradient><linearGradient id="104" x1="0%" y1="0%" x2="100%" y2="0%"><stop offset="0%" stop-color="#00ecbc"></stop> <stop offset="100%" stop-color="#007adf"></stop></linearGradient><linearGradient id="105" x1="0%" y1="0%" x2="100%" y2="0%"><stop offset="0%" stop-color="#b88746"></stop> <stop offset="100%" stop-color="#fdf5a6"></stop></linearGradient></defs><g fill="#fff" class="basesvg" transform="translate(54.92999267578125,98.94200134277344)"><g fill-rule="" stroke="#fff" class="tp-name" transform="translate(0,0)"><g transform="scale(1)"><g><path d="M25.88 0L4.14 0Q3.44 0 2.92-0.49L2.92-0.49Q2.43-1 2.43-1.7L2.43-1.7Q2.43-2.4 2.92-2.89L2.92-2.89Q3.44-3.41 4.14-3.41L4.14-3.41 25.88-3.41Q29.65-3.41 32.35-6.08L32.35-6.08Q35.03-8.79 35.03-12.56L35.03-12.56 35.03-26.15Q35.03-29.95 32.35-32.63L32.35-32.63Q29.65-35.33 25.88-35.33L25.88-35.33 4.14-35.33Q3.44-35.33 2.92-35.82L2.92-35.82Q2.43-36.31 2.43-37.01L2.43-37.01Q2.43-37.7 2.92-38.22L2.92-38.22Q3.44-38.71 4.14-38.71L4.14-38.71 25.88-38.71Q31.08-38.71 34.76-35.03L34.76-35.03Q38.43-31.35 38.43-26.15L38.43-26.15 38.43-12.56Q38.43-7.36 34.76-3.68L34.76-3.68Q31.08 0 25.88 0L25.88 0ZM78.6-3.41L46-3.41Q45.3-3.41 44.79-2.89L44.79-2.89Q44.3-2.4 44.3-1.7L44.3-1.7Q44.3-1 44.79-0.49L44.79-0.49Q45.3 0 46 0L46 0 78.6 0Q79.3 0 79.79-0.49L79.79-0.49Q80.3-1 80.3-1.7L80.3-1.7Q80.3-2.4 79.79-2.89L79.79-2.89Q79.3-3.41 78.6-3.41L78.6-3.41ZM46-35.33L78.6-35.33Q79.3-35.33 79.79-35.82L79.79-35.82Q80.3-36.31 80.3-37.01L80.3-37.01Q80.3-37.7 79.79-38.22L79.79-38.22Q79.3-38.71 78.6-38.71L78.6-38.71 46-38.71Q45.3-38.71 44.79-38.22L44.79-38.22Q44.3-37.7 44.3-37.01L44.3-37.01Q44.3-36.31 44.79-35.82L44.79-35.82Q45.3-35.33 46-35.33L46-35.33ZM78.6-21.04L46-21.04Q45.3-21.04 44.79-20.56L44.79-20.56Q44.3-20.07 44.3-19.37L44.3-19.37Q44.3-18.64 44.79-18.15L44.79-18.15Q45.3-17.67 46-17.67L46-17.67 78.6-17.67Q79.3-17.67 79.79-18.15L79.79-18.15Q80.3-18.64 80.3-19.37L80.3-19.37Q80.3-20.07 79.79-20.56L79.79-20.56Q79.3-21.04 78.6-21.04L78.6-21.04ZM120.47 0L87.87 0Q87.17 0 86.65-0.49L86.65-0.49Q86.17-1 86.17-1.7L86.17-1.7 86.17-37.01Q86.17-37.7 86.65-38.22L86.65-38.22Q87.17-38.71 87.87-38.71L87.87-38.71Q88.57-38.71 89.06-38.22L89.06-38.22Q89.57-37.7 89.57-37.01L89.57-37.01 89.57-3.41 120.47-3.41Q121.17-3.41 121.65-2.89L121.65-2.89Q122.17-2.4 122.17-1.7L122.17-1.7Q122.17-1 121.65-0.49L121.65-0.49Q121.17 0 120.47 0L120.47 0ZM147.13-38.71L114.53-38.71Q113.83-38.71 113.32-38.22L113.32-38.22Q112.83-37.7 112.83-37.01L112.83-37.01Q112.83-36.31 113.32-35.82L113.32-35.82Q113.83-35.33 114.53-35.33L114.53-35.33 129.8-35.33 129.8-1.7Q129.8-1 130.31-0.49L130.31-0.49Q130.8 0 131.5 0L131.5 0Q132.2 0 132.72-0.49L132.72-0.49Q133.2-1 133.2-1.7L133.2-1.7 133.2-35.33 147.13-35.33Q147.83-35.33 148.32-35.82L148.32-35.82Q148.83-36.31 148.83-37.01L148.83-37.01Q148.83-37.7 148.32-38.22L148.32-38.22Q147.83-38.71 147.13-38.71L147.13-38.71ZM189-3.41L156.4-3.41Q155.7-3.41 155.18-2.89L155.18-2.89Q154.7-2.4 154.7-1.7L154.7-1.7Q154.7-1 155.18-0.49L155.18-0.49Q155.7 0 156.4 0L156.4 0 189 0Q189.7 0 190.18-0.49L190.18-0.49Q190.7-1 190.7-1.7L190.7-1.7Q190.7-2.4 190.18-2.89L190.18-2.89Q189.7-3.41 189-3.41L189-3.41ZM156.4-35.33L189-35.33Q189.7-35.33 190.18-35.82L190.18-35.82Q190.7-36.31 190.7-37.01L190.7-37.01Q190.7-37.7 190.18-38.22L190.18-38.22Q189.7-38.71 189-38.71L189-38.71 156.4-38.71Q155.7-38.71 155.18-38.22L155.18-38.22Q154.7-37.7 154.7-37.01L154.7-37.01Q154.7-36.31 155.18-35.82L155.18-35.82Q155.7-35.33 156.4-35.33L156.4-35.33ZM189-21.04L156.4-21.04Q155.7-21.04 155.18-20.56L155.18-20.56Q154.7-20.07 154.7-19.37L154.7-19.37Q154.7-18.64 155.18-18.15L155.18-18.15Q155.7-17.67 156.4-17.67L156.4-17.67 189-17.67Q189.7-17.67 190.18-18.15L190.18-18.15Q190.7-18.64 190.7-19.37L190.7-19.37Q190.7-20.07 190.18-20.56L190.18-20.56Q189.7-21.04 189-21.04L189-21.04ZM230.86 0L203.71 0Q200.76 0 198.66-2.1L198.66-2.1Q196.57-4.2 196.57-7.15L196.57-7.15 196.57-31.59Q196.57-34.54 198.66-36.61L198.66-36.61Q200.76-38.71 203.71-38.71L203.71-38.71 230.86-38.71Q231.56-38.71 232.05-38.22L232.05-38.22Q232.57-37.7 232.57-37.01L232.57-37.01Q232.57-36.31 232.05-35.82L232.05-35.82Q231.56-35.33 230.86-35.33L230.86-35.33 203.71-35.33Q202.16-35.33 201.07-34.21L201.07-34.21Q199.97-33.11 199.97-31.59L199.97-31.59 199.97-7.15Q199.97-5.59 201.07-4.5L201.07-4.5Q202.16-3.41 203.71-3.41L203.71-3.41 230.86-3.41Q231.56-3.41 232.05-2.89L232.05-2.89Q232.57-2.4 232.57-1.7L232.57-1.7Q232.57-1 232.05-0.49L232.05-0.49Q231.56 0 230.86 0L230.86 0Z" transform="translate(-2.430000066757202, 38.709999084472656)" stroke-width="0.5" stroke-linejoin="round"></path></g> </g></g> <g fill-rule="" class="tp-slogan" fill="#fff" transform="translate(77.14000701904297,43.959999084472656)"> <g transform="scale(1, 1)"><g transform="scale(1)"><path d="M0.62-3.94L0.62-3.94Q0.62-4.88 0.89-5.64Q1.16-6.40 1.65-6.92Q2.14-7.45 2.80-7.73Q3.46-8.02 4.25-8.02L4.25-8.02Q5.06-8.02 5.61-7.71Q6.16-7.40 6.50-7.04L6.50-7.04L5.94-6.41Q5.64-6.72 5.25-6.93Q4.86-7.14 4.26-7.14L4.26-7.14Q3.66-7.14 3.18-6.92Q2.70-6.70 2.36-6.28Q2.03-5.87 1.84-5.28Q1.66-4.69 1.66-3.96L1.66-3.96Q1.66-3.22 1.83-2.62Q2.00-2.03 2.33-1.61Q2.66-1.19 3.15-0.96Q3.64-0.73 4.27-0.73L4.27-0.73Q4.69-0.73 5.07-0.86Q5.45-0.98 5.69-1.20L5.69-1.20L5.69-3.25L4.02-3.25L4.02-4.08L6.60-4.08L6.60-0.77Q6.22-0.37 5.59-0.11Q4.96 0.14 4.16 0.14L4.16 0.14Q3.38 0.14 2.74-0.13Q2.09-0.41 1.62-0.93Q1.15-1.45 0.89-2.21Q0.62-2.98 0.62-3.94ZM19.48-7.07L19.48-4.14L20.80-4.14Q21.72-4.14 22.22-4.52Q22.71-4.90 22.71-5.66L22.71-5.66Q22.71-6.44 22.22-6.76Q21.72-7.07 20.80-7.07L20.80-7.07L19.48-7.07ZM23.93 0L22.80 0L20.91-3.32L19.48-3.32L19.48 0L18.48 0L18.48-7.87L20.94-7.87Q21.54-7.87 22.05-7.76Q22.56-7.64 22.93-7.38Q23.30-7.12 23.50-6.70Q23.70-6.28 23.70-5.66L23.70-5.66Q23.70-4.74 23.22-4.19Q22.74-3.64 21.94-3.43L21.94-3.43L23.93 0ZM38.36 0.14L38.36 0.14Q37.62 0.14 37.00-0.14Q36.38-0.43 35.94-0.97Q35.49-1.50 35.25-2.26Q35.00-3.02 35.00-3.97L35.00-3.97Q35.00-4.92 35.25-5.67Q35.49-6.42 35.94-6.94Q36.38-7.46 37.00-7.74Q37.62-8.02 38.36-8.02L38.36-8.02Q39.10-8.02 39.72-7.73Q40.34-7.45 40.79-6.93Q41.24-6.41 41.49-5.66Q41.73-4.91 41.73-3.97L41.73-3.97Q41.73-3.02 41.49-2.26Q41.24-1.50 40.79-0.97Q40.34-0.43 39.72-0.14Q39.10 0.14 38.36 0.14ZM38.36-0.73L38.36-0.73Q38.89-0.73 39.31-0.96Q39.74-1.19 40.05-1.61Q40.35-2.04 40.52-2.63Q40.69-3.23 40.69-3.97L40.69-3.97Q40.69-4.70 40.52-5.29Q40.35-5.88 40.05-6.29Q39.74-6.70 39.31-6.92Q38.89-7.14 38.36-7.14L38.36-7.14Q37.83-7.14 37.41-6.92Q36.98-6.70 36.67-6.29Q36.37-5.88 36.20-5.29Q36.03-4.70 36.03-3.97L36.03-3.97Q36.03-3.23 36.20-2.63Q36.37-2.04 36.67-1.61Q36.98-1.19 37.41-0.96Q37.83-0.73 38.36-0.73ZM53.39-3.25L53.39-7.87L54.38-7.87L54.38-3.23Q54.38-2.52 54.53-2.04Q54.67-1.56 54.92-1.27Q55.16-0.98 55.50-0.86Q55.84-0.73 56.22-0.73L56.22-0.73Q56.62-0.73 56.95-0.86Q57.29-0.98 57.54-1.27Q57.79-1.56 57.94-2.04Q58.08-2.52 58.08-3.23L58.08-3.23L58.08-7.87L59.04-7.87L59.04-3.25Q59.04-2.30 58.82-1.66Q58.61-1.01 58.23-0.61Q57.85-0.20 57.34-0.03Q56.82 0.14 56.22 0.14L56.22 0.14Q55.62 0.14 55.10-0.03Q54.58-0.20 54.20-0.61Q53.82-1.01 53.60-1.66Q53.39-2.30 53.39-3.25L53.39-3.25ZM71.16 0L71.16-7.87L73.58-7.87Q74.22-7.87 74.76-7.75Q75.30-7.63 75.68-7.36Q76.06-7.09 76.27-6.65Q76.48-6.20 76.48-5.56L76.48-5.56Q76.48-4.93 76.27-4.48Q76.06-4.02 75.68-3.72Q75.29-3.42 74.76-3.27Q74.22-3.12 73.58-3.12L73.58-3.12L72.16-3.12L72.16 0L71.16 0ZM72.16-3.94L73.46-3.94Q74.49-3.94 74.99-4.33Q75.48-4.72 75.48-5.56L75.48-5.56Q75.48-6.41 74.98-6.74Q74.48-7.07 73.46-7.07L73.46-7.07L72.16-7.07L72.16-3.94Z" transform="translate(-0.624, 8.016)"></path></g></g></g></g><defs v-gra="od"></defs></g></svg>