<svg width="1000" height="242" viewBox="0 0 1000 242" fill="none" xmlns="http://www.w3.org/2000/svg">
<path d="M109.7 174.708H17.0884C15.1004 174.708 13.368 174.012 11.8912 172.62C10.4996 171.172 9.80383 169.454 9.80383 167.466C9.80383 165.478 10.4996 163.788 11.8912 162.396C13.368 160.92 15.1004 160.181 17.0884 160.181H109.7C120.407 160.181 129.594 156.39 137.262 148.807C144.874 141.111 148.679 131.909 148.679 121.202V63.3093C148.679 52.5174 144.874 43.3158 137.262 35.7046C129.594 28.0367 120.407 24.2027 109.7 24.2027H17.0884C15.1004 24.2027 13.368 23.5069 11.8912 22.1153C10.4996 20.7237 9.80383 19.0339 9.80383 17.0459C9.80383 15.0863 10.4996 13.3681 11.8912 11.8913C13.368 10.4997 15.1004 9.80396 17.0884 9.80396H109.7C124.468 9.80396 137.078 15.0295 147.529 25.4807C157.952 35.9318 163.163 48.5414 163.163 63.3093V121.202C163.163 135.97 157.952 148.58 147.529 159.031C137.078 169.482 124.468 174.708 109.7 174.708ZM334.287 160.181H195.411C193.423 160.181 191.705 160.92 190.257 162.396C188.865 163.788 188.169 165.478 188.169 167.466C188.169 169.454 188.865 171.172 190.257 172.62C191.705 174.012 193.423 174.708 195.411 174.708H334.287C336.275 174.708 337.964 174.012 339.356 172.62C340.804 171.172 341.529 169.454 341.529 167.466C341.529 165.478 340.804 163.788 339.356 162.396C337.964 160.92 336.275 160.181 334.287 160.181ZM195.411 24.2027H334.287C336.275 24.2027 337.964 23.5069 339.356 22.1153C340.804 20.7237 341.529 19.0339 341.529 17.0459C341.529 15.0863 340.804 13.3681 339.356 11.8913C337.964 10.4997 336.275 9.80396 334.287 9.80396H195.411C193.423 9.80396 191.705 10.4997 190.257 11.8913C188.865 13.3681 188.169 15.0863 188.169 17.0459C188.169 19.0339 188.865 20.7237 190.257 22.1153C191.705 23.5069 193.423 24.2027 195.411 24.2027ZM334.287 85.0778H195.411C193.423 85.0778 191.705 85.7594 190.257 87.1226C188.865 88.5142 188.169 90.204 188.169 92.192C188.169 94.2652 188.865 95.9976 190.257 97.3892C191.705 98.7524 193.423 99.434 195.411 99.434H334.287C336.275 99.434 337.964 98.7524 339.356 97.3892C340.804 95.9976 341.529 94.2652 341.529 92.192C341.529 90.204 340.804 88.5142 339.356 87.1226C337.964 85.7594 336.275 85.0778 334.287 85.0778ZM512.652 174.708H373.777C371.789 174.708 370.056 174.012 368.579 172.62C367.216 171.172 366.535 169.454 366.535 167.466V17.0459C366.535 15.0863 367.216 13.3681 368.579 11.8913C370.056 10.4997 371.789 9.80396 373.777 9.80396C375.765 9.80396 377.454 10.4997 378.846 11.8913C380.294 13.3681 381.019 15.0863 381.019 17.0459V160.181H512.652C514.64 160.181 516.316 160.92 517.679 162.396C519.156 163.788 519.894 165.478 519.894 167.466C519.894 169.454 519.156 171.172 517.679 172.62C516.316 174.012 514.64 174.708 512.652 174.708ZM626.223 9.80396H487.348C485.36 9.80396 483.642 10.4997 482.193 11.8913C480.802 13.3681 480.106 15.0863 480.106 17.0459C480.106 19.0339 480.802 20.7237 482.193 22.1153C483.642 23.5069 485.36 24.2027 487.348 24.2027H552.398V167.466C552.398 169.454 553.122 171.172 554.57 172.62C555.962 174.012 557.652 174.708 559.64 174.708C561.628 174.708 563.36 174.012 564.837 172.62C566.2 171.172 566.882 169.454 566.882 167.466V24.2027H626.223C628.211 24.2027 629.901 23.5069 631.293 22.1153C632.741 20.7237 633.465 19.0339 633.465 17.0459C633.465 15.0863 632.741 13.3681 631.293 11.8913C629.901 10.4997 628.211 9.80396 626.223 9.80396ZM804.589 160.181H665.713C663.725 160.181 661.993 160.92 660.516 162.396C659.153 163.788 658.471 165.478 658.471 167.466C658.471 169.454 659.153 171.172 660.516 172.62C661.993 174.012 663.725 174.708 665.713 174.708H804.589C806.577 174.708 808.252 174.012 809.615 172.62C811.092 171.172 811.831 169.454 811.831 167.466C811.831 165.478 811.092 163.788 809.615 162.396C808.252 160.92 806.577 160.181 804.589 160.181ZM665.713 24.2027H804.589C806.577 24.2027 808.252 23.5069 809.615 22.1153C811.092 20.7237 811.831 19.0339 811.831 17.0459C811.831 15.0863 811.092 13.3681 809.615 11.8913C808.252 10.4997 806.577 9.80396 804.589 9.80396H665.713C663.725 9.80396 661.993 10.4997 660.516 11.8913C659.153 13.3681 658.471 15.0863 658.471 17.0459C658.471 19.0339 659.153 20.7237 660.516 22.1153C661.993 23.5069 663.725 24.2027 665.713 24.2027ZM804.589 85.0778H665.713C663.725 85.0778 661.993 85.7594 660.516 87.1226C659.153 88.5142 658.471 90.204 658.471 92.192C658.471 94.2652 659.153 95.9976 660.516 97.3892C661.993 98.7524 663.725 99.434 665.713 99.434H804.589C806.577 99.434 808.252 98.7524 809.615 97.3892C811.092 95.9976 811.831 94.2652 811.831 92.192C811.831 90.204 811.092 88.5142 809.615 87.1226C808.252 85.7594 806.577 85.0778 804.589 85.0778ZM982.911 174.708H867.253C858.875 174.708 851.704 171.726 845.74 165.762C839.804 159.798 836.837 152.627 836.837 144.249V40.135C836.837 31.7571 839.804 24.6287 845.74 18.7499C851.704 12.7859 858.875 9.80396 867.253 9.80396H982.911C984.899 9.80396 986.589 10.4997 987.981 11.8913C989.458 13.3681 990.196 15.0863 990.196 17.0459C990.196 19.0339 989.458 20.7237 987.981 22.1153C986.589 23.5069 984.899 24.2027 982.911 24.2027H867.253C862.851 24.2027 859.102 25.7931 856.007 28.9739C852.883 32.0979 851.321 35.8182 851.321 40.135V144.249C851.321 148.679 852.883 152.442 856.007 155.538C859.102 158.633 862.851 160.181 867.253 160.181H982.911C984.899 160.181 986.589 160.92 987.981 162.396C989.458 163.788 990.196 165.478 990.196 167.466C990.196 169.454 989.458 171.172 987.981 172.62C986.589 174.012 984.899 174.708 982.911 174.708Z" fill="#79ADAC" stroke="#79ADAC" stroke-width="2.12999" stroke-linejoin="round"/>
<path d="M338.402 214.436C338.402 211.767 338.785 209.353 339.552 207.194C340.319 205.036 341.398 203.218 342.79 201.742C344.181 200.236 345.814 199.086 347.689 198.291C349.563 197.467 351.622 197.056 353.866 197.056C356.166 197.056 358.097 197.496 359.659 198.376C361.221 199.257 362.485 200.208 363.451 201.23L361.065 203.914C360.213 203.034 359.233 202.295 358.126 201.699C357.018 201.103 355.612 200.804 353.908 200.804C352.204 200.804 350.671 201.117 349.307 201.742C347.944 202.366 346.78 203.275 345.814 204.468C344.877 205.632 344.139 207.052 343.599 208.728C343.088 210.404 342.832 212.278 342.832 214.351C342.832 216.453 343.074 218.356 343.556 220.06C344.039 221.735 344.749 223.169 345.686 224.362C346.624 225.555 347.788 226.478 349.18 227.131C350.571 227.784 352.162 228.111 353.951 228.111C355.144 228.111 356.28 227.926 357.359 227.557C358.438 227.216 359.318 226.734 360 226.109V217.376H352.886V213.84H363.877V227.941C362.797 229.077 361.363 230.014 359.574 230.752C357.785 231.462 355.754 231.817 353.482 231.817C351.267 231.817 349.251 231.434 347.433 230.667C345.587 229.872 343.997 228.736 342.662 227.259C341.327 225.782 340.29 223.965 339.552 221.806C338.785 219.619 338.402 217.163 338.402 214.436ZM418.745 201.103V213.584H424.368C426.981 213.584 428.997 213.045 430.417 211.966C431.809 210.886 432.505 209.268 432.505 207.109C432.505 204.894 431.809 203.332 430.417 202.423C428.997 201.543 426.981 201.103 424.368 201.103H418.745ZM437.702 231.221H432.888L424.837 217.078H418.745V231.221H414.485V197.695H424.965C426.669 197.695 428.245 197.851 429.693 198.163C431.142 198.504 432.391 199.044 433.442 199.782C434.493 200.52 435.302 201.486 435.87 202.679C436.438 203.872 436.722 205.348 436.722 207.109C436.722 209.722 436.041 211.809 434.677 213.371C433.314 214.933 431.497 216.013 429.225 216.609L437.702 231.221ZM499.174 231.817C497.072 231.817 495.141 231.42 493.38 230.624C491.619 229.801 490.114 228.622 488.864 227.089C487.586 225.583 486.607 223.752 485.925 221.593C485.215 219.435 484.86 217.007 484.86 214.309C484.86 211.611 485.215 209.197 485.925 207.067C486.607 204.937 487.586 203.133 488.864 201.656C490.114 200.18 491.619 199.044 493.38 198.248C495.141 197.453 497.072 197.056 499.174 197.056C501.275 197.056 503.206 197.467 504.967 198.291C506.728 199.086 508.247 200.222 509.525 201.699C510.803 203.176 511.797 204.979 512.507 207.109C513.189 209.239 513.53 211.639 513.53 214.309C513.53 217.007 513.189 219.435 512.507 221.593C511.797 223.752 510.803 225.583 509.525 227.089C508.247 228.622 506.728 229.801 504.967 230.624C503.206 231.42 501.275 231.817 499.174 231.817ZM499.174 228.111C500.679 228.111 502.028 227.784 503.221 227.131C504.442 226.478 505.493 225.555 506.373 224.362C507.225 223.141 507.892 221.693 508.375 220.017C508.858 218.313 509.099 216.41 509.099 214.309C509.099 212.235 508.858 210.361 508.375 208.685C507.892 207.01 507.225 205.59 506.373 204.425C505.493 203.261 504.442 202.366 503.221 201.742C502.028 201.117 500.679 200.804 499.174 200.804C497.668 200.804 496.319 201.117 495.127 201.742C493.905 202.366 492.855 203.261 491.974 204.425C491.122 205.59 490.455 207.01 489.972 208.685C489.489 210.361 489.248 212.235 489.248 214.309C489.248 216.41 489.489 218.313 489.972 220.017C490.455 221.693 491.122 223.141 491.974 224.362C492.855 225.555 493.905 226.478 495.127 227.131C496.319 227.784 497.668 228.111 499.174 228.111ZM563.201 217.376V197.695H567.418V217.461C567.418 219.477 567.631 221.167 568.057 222.53C568.455 223.894 569.009 224.987 569.719 225.811C570.4 226.634 571.224 227.216 572.19 227.557C573.155 227.926 574.178 228.111 575.257 228.111C576.393 228.111 577.429 227.926 578.367 227.557C579.332 227.216 580.17 226.634 580.88 225.811C581.59 224.987 582.158 223.894 582.584 222.53C582.982 221.167 583.18 219.477 583.18 217.461V197.695H587.27V217.376C587.27 220.074 586.958 222.332 586.333 224.149C585.736 225.995 584.899 227.486 583.819 228.622C582.74 229.787 581.476 230.61 580.028 231.093C578.551 231.576 576.961 231.817 575.257 231.817C573.553 231.817 571.962 231.576 570.486 231.093C569.009 230.61 567.731 229.787 566.652 228.622C565.572 227.486 564.72 225.995 564.096 224.149C563.499 222.332 563.201 220.074 563.201 217.376ZM638.901 231.221V197.695H649.21C651.028 197.695 652.703 197.865 654.237 198.206C655.77 198.547 657.077 199.1 658.156 199.867C659.235 200.634 660.073 201.642 660.669 202.892C661.266 204.17 661.564 205.718 661.564 207.535C661.564 209.324 661.266 210.858 660.669 212.136C660.073 213.442 659.235 214.522 658.156 215.374C657.048 216.226 655.742 216.865 654.237 217.291C652.703 217.717 651.028 217.93 649.21 217.93H643.161V231.221H638.901ZM643.161 214.436H648.699C651.624 214.436 653.797 213.883 655.217 212.775C656.608 211.667 657.304 209.921 657.304 207.535C657.304 205.121 656.594 203.446 655.174 202.508C653.754 201.571 651.596 201.103 648.699 201.103H643.161V214.436Z" fill="#4B4B4B"/>
</svg>
